<svg id="svg" version="1.1" xmlns="http://www.w3.org/2000/svg" xmlns:xlink="http://www.w3.org/1999/xlink" width="400" height="446.51162790697674" viewBox="0, 0, 400,446.51162790697674"><g id="svgg"><path id="path0" d="M15.867 14.666 C 15.720 14.813,15.600 108.503,15.600 222.867 L 15.600 430.800 200.600 430.800 L 385.601 430.800 385.500 222.700 L 385.400 14.600 200.767 14.500 C 99.219 14.444,16.014 14.519,15.867 14.666 M203.920 190.880 C 204.184 191.144,204.400 192.396,204.400 193.662 L 204.400 195.963 207.100 196.082 L 209.800 196.200 209.919 198.700 L 210.038 201.200 212.572 201.200 C 215.423 201.200,215.584 201.386,215.595 204.700 L 215.600 206.400 217.786 206.400 C 219.538 206.400,220.054 206.554,220.386 207.174 C 220.882 208.100,220.962 257.526,220.469 258.303 C 220.216 258.700,214.290 258.784,192.175 258.703 L 164.200 258.600 164.097 225.000 C 164.040 206.520,164.079 191.175,164.184 190.900 C 164.455 190.189,203.209 190.169,203.920 190.880 M170.400 224.151 C 170.400 246.755,170.495 251.581,170.945 251.955 C 171.339 252.282,177.355 252.378,192.645 252.304 L 213.800 252.200 213.904 235.307 L 214.009 218.413 203.304 218.307 L 192.600 218.200 192.493 207.500 L 192.387 196.800 181.393 196.800 L 170.400 196.800 170.400 224.151 M198.800 204.409 L 198.800 212.018 206.300 211.909 L 213.800 211.800 213.922 209.900 L 214.044 208.000 211.636 208.000 C 208.793 208.000,208.400 207.566,208.400 204.426 L 208.400 202.400 206.280 202.400 C 203.596 202.400,203.200 201.978,203.200 199.120 L 203.200 196.800 201.000 196.800 L 198.800 196.800 198.800 204.409 M184.311 212.516 L 184.422 218.433 181.111 218.316 L 177.800 218.200 177.688 212.631 C 177.558 206.146,177.434 206.351,181.400 206.497 L 184.200 206.600 184.311 212.516 M200.869 234.262 C 201.403 234.746,201.600 235.499,201.600 237.062 L 201.600 239.200 203.374 239.200 C 206.680 239.200,207.200 239.631,207.200 242.367 C 207.200 245.311,206.467 246.000,203.340 246.000 C 200.550 246.000,200.000 245.403,200.000 242.371 L 200.000 240.000 192.200 240.000 L 184.400 240.000 184.400 242.520 C 184.400 245.548,184.029 246.000,181.546 246.000 C 178.007 246.000,177.600 245.635,177.600 242.457 C 177.600 239.321,177.720 239.216,181.300 239.205 L 183.200 239.200 183.200 237.029 C 183.200 233.585,183.161 233.600,192.297 233.600 C 199.031 233.600,200.240 233.693,200.869 234.262 " stroke="none" fill="#dcdcdc" fill-rule="evenodd"></path><path id="path1" d="M0.000 223.200 L 0.000 446.400 200.000 446.400 L 400.000 446.400 400.000 223.200 L 400.000 0.000 200.000 0.000 L 0.000 0.000 0.000 223.200 M385.500 222.700 L 385.601 430.800 200.600 430.800 L 15.600 430.800 15.600 222.867 C 15.600 108.503,15.720 14.813,15.867 14.666 C 16.014 14.519,99.219 14.444,200.767 14.500 L 385.400 14.600 385.500 222.700 " stroke="none" fill="#fcfcfc" fill-rule="evenodd"></path><path id="path2" d="M164.670 191.463 C 164.522 191.612,164.400 206.643,164.400 224.867 L 164.400 258.000 192.203 258.000 L 220.006 258.000 219.903 232.900 L 219.800 207.800 217.600 207.800 L 215.400 207.800 215.281 210.297 C 215.133 213.401,215.593 213.261,206.000 213.114 L 198.600 213.000 198.600 204.600 L 198.600 196.200 201.119 196.080 L 203.639 195.961 203.519 193.680 L 203.400 191.400 184.170 191.296 C 173.594 191.239,164.819 191.314,164.670 191.463 M192.826 196.414 C 193.561 196.807,193.600 197.357,193.600 207.408 L 193.600 217.987 204.300 218.093 L 215.000 218.200 215.000 235.600 L 215.000 253.000 192.426 253.103 C 174.631 253.185,169.784 253.100,169.532 252.703 C 168.787 251.531,169.145 196.872,169.900 196.432 C 170.853 195.877,191.792 195.860,192.826 196.414 M204.500 196.656 C 204.188 196.787,204.000 197.679,204.000 199.033 L 204.000 201.200 206.420 201.200 L 208.840 201.200 208.720 198.900 L 208.600 196.600 206.800 196.522 C 205.810 196.479,204.775 196.539,204.500 196.656 M210.000 204.420 L 210.000 206.840 212.300 206.720 C 214.856 206.587,215.145 206.166,214.617 203.348 C 214.366 202.013,214.343 202.000,212.182 202.000 L 210.000 202.000 210.000 204.420 M178.974 208.124 C 178.863 208.413,178.824 210.708,178.886 213.224 L 179.000 217.800 180.355 217.929 C 183.546 218.234,183.600 218.150,183.600 212.835 C 183.600 207.550,183.627 207.600,180.755 207.600 C 179.821 207.600,179.093 207.814,178.974 208.124 M184.162 235.354 C 184.045 235.659,184.006 236.694,184.075 237.654 L 184.200 239.400 192.300 239.508 L 200.400 239.617 200.400 237.208 L 200.400 234.800 192.387 234.800 C 185.928 234.800,184.334 234.907,184.162 235.354 M178.880 242.300 L 179.000 244.600 181.200 244.600 L 183.400 244.600 183.520 242.300 L 183.640 240.000 181.200 240.000 L 178.760 240.000 178.880 242.300 M200.880 242.300 L 201.000 244.600 203.300 244.720 L 205.600 244.840 205.600 242.420 L 205.600 240.000 203.180 240.000 L 200.760 240.000 200.880 242.300 " stroke="none" fill="#080008" fill-rule="evenodd"></path><path id="path3" d="M164.184 190.900 C 164.079 191.175,164.040 206.520,164.097 225.000 L 164.200 258.600 192.200 258.604 L 220.200 258.608 192.298 258.501 L 164.395 258.395 164.498 224.697 L 164.600 191.000 184.200 191.000 L 203.800 191.000 204.031 193.600 L 204.262 196.200 204.331 193.780 C 204.372 192.342,204.205 191.165,203.920 190.880 C 203.209 190.169,164.455 190.189,164.184 190.900 M207.081 196.285 L 209.563 196.437 209.710 198.719 L 209.857 201.000 209.829 198.600 L 209.800 196.200 207.200 196.166 L 204.600 196.133 207.081 196.285 M170.267 196.667 C 170.120 196.813,170.000 209.503,170.000 224.867 L 170.000 252.800 192.157 252.800 C 211.993 252.800,214.340 252.734,214.557 252.167 C 214.984 251.054,214.836 218.400,214.404 218.400 C 214.151 218.400,213.971 224.494,213.904 235.300 L 213.800 252.200 192.645 252.304 C 177.355 252.378,171.339 252.282,170.945 251.955 C 170.495 251.581,170.400 246.755,170.400 224.151 L 170.400 196.800 181.393 196.800 L 192.387 196.800 192.493 207.467 C 192.560 214.126,192.750 218.184,193.000 218.267 C 193.623 218.475,193.313 197.120,192.687 196.722 C 192.093 196.344,170.642 196.292,170.267 196.667 M200.998 196.687 L 203.200 196.840 203.200 199.140 C 203.200 201.977,203.599 202.400,206.280 202.400 L 208.400 202.400 208.400 204.426 C 208.400 207.566,208.793 208.000,211.636 208.000 L 214.044 208.000 213.922 209.900 L 213.800 211.800 206.300 211.909 C 201.754 211.975,198.800 212.172,198.800 212.409 C 198.800 213.035,213.283 212.920,214.149 212.287 C 214.690 211.891,214.822 211.319,214.725 209.787 L 214.600 207.800 212.405 207.676 C 209.463 207.509,208.800 206.859,208.800 204.138 L 208.800 202.000 206.700 201.994 C 203.892 201.986,203.665 201.771,203.523 198.990 L 203.400 196.600 201.098 196.567 L 198.796 196.534 200.998 196.687 M210.800 201.427 C 212.163 201.732,215.200 201.784,215.200 201.503 C 215.200 201.336,214.075 201.221,212.700 201.246 C 211.325 201.272,210.470 201.353,210.800 201.427 M215.274 204.500 L 215.200 206.800 217.600 206.800 C 218.920 206.800,220.042 206.845,220.093 206.900 C 220.144 206.955,220.281 218.520,220.398 232.600 L 220.612 258.200 220.706 233.074 C 220.812 204.783,220.988 206.400,217.807 206.400 L 215.642 206.400 215.495 204.300 L 215.348 202.200 215.274 204.500 M178.088 206.728 C 177.282 207.254,177.578 218.174,178.400 218.234 C 178.745 218.259,178.788 218.206,178.500 218.109 C 177.737 217.853,177.797 207.866,178.566 207.228 C 178.900 206.951,180.090 206.808,181.466 206.879 L 183.800 207.000 183.912 212.369 C 183.996 216.396,183.896 217.819,183.512 218.063 C 183.138 218.300,183.192 218.389,183.711 218.394 C 184.365 218.400,184.413 217.930,184.311 212.500 L 184.200 206.600 181.400 206.497 C 179.860 206.441,178.370 206.544,178.088 206.728 M183.829 234.229 C 183.413 234.644,183.200 235.586,183.200 237.009 L 183.200 239.160 180.900 239.304 L 178.600 239.449 181.081 239.524 L 183.562 239.600 183.681 237.100 L 183.800 234.600 192.200 234.600 L 200.600 234.600 200.719 237.100 L 200.838 239.600 203.319 239.526 L 205.800 239.452 203.700 239.305 L 201.600 239.158 201.600 237.041 C 201.600 233.630,201.520 233.600,192.297 233.600 C 185.703 233.600,184.357 233.700,183.829 234.229 M177.600 242.410 C 177.600 245.641,177.995 246.000,181.546 246.000 C 184.075 246.000,184.414 245.564,184.331 242.420 L 184.262 239.800 184.031 242.400 L 183.800 245.000 181.000 245.000 L 178.200 245.000 178.200 242.299 C 178.200 240.814,178.065 239.599,177.900 239.599 C 177.735 239.600,177.600 240.864,177.600 242.410 M206.200 242.299 L 206.200 245.000 203.400 245.000 L 200.600 245.000 200.369 242.400 L 200.138 239.800 200.069 242.271 C 199.981 245.414,200.495 246.000,203.340 246.000 C 206.547 246.000,207.264 245.297,207.118 242.296 C 206.954 238.911,206.200 238.913,206.200 242.299 " stroke="none" fill="#c4c4c4" fill-rule="evenodd"></path><path id="path4" d="M164.664 191.096 C 164.561 191.263,173.234 191.400,183.938 191.400 L 203.400 191.400 203.519 193.680 L 203.639 195.961 201.119 196.080 L 198.600 196.200 198.600 204.600 L 198.600 213.000 206.000 213.114 C 215.593 213.261,215.133 213.401,215.281 210.297 L 215.400 207.800 217.600 207.800 L 219.800 207.800 219.903 232.897 L 220.006 257.995 192.103 258.100 L 164.200 258.206 192.300 258.303 L 220.400 258.400 220.400 233.233 C 220.400 204.437,220.652 206.800,217.576 206.800 L 215.238 206.800 215.119 204.300 L 215.000 201.800 213.200 201.695 C 209.622 201.485,209.600 201.467,209.600 198.792 C 209.600 197.146,209.444 196.400,209.100 196.399 C 208.740 196.399,208.638 197.073,208.736 198.799 L 208.871 201.200 206.436 201.200 L 204.000 201.200 204.000 199.033 C 204.000 197.675,204.187 196.791,204.500 196.664 C 204.884 196.508,204.889 196.382,204.523 196.121 C 204.260 195.934,203.990 194.705,203.923 193.390 L 203.800 191.000 184.326 190.896 C 173.615 190.839,164.767 190.929,164.664 191.096 M169.900 196.432 C 169.145 196.872,168.787 251.531,169.532 252.703 C 169.784 253.100,174.631 253.185,192.426 253.103 L 215.000 253.000 215.000 235.600 L 215.000 218.200 204.300 218.093 L 193.600 217.987 193.600 207.408 C 193.600 197.357,193.561 196.807,192.826 196.414 C 191.792 195.860,170.853 195.877,169.900 196.432 M192.693 196.726 C 193.059 196.958,193.214 199.767,193.293 207.619 L 193.400 218.200 204.100 218.307 L 214.800 218.413 214.800 234.974 C 214.800 244.082,214.691 251.819,214.557 252.167 C 214.340 252.734,211.993 252.800,192.157 252.800 L 170.000 252.800 170.000 224.867 C 170.000 209.503,170.120 196.813,170.267 196.667 C 170.644 196.289,192.095 196.346,192.693 196.726 M203.523 198.990 C 203.665 201.771,203.892 201.986,206.700 201.994 L 208.800 202.000 208.800 204.138 C 208.800 206.859,209.463 207.509,212.405 207.676 L 214.600 207.800 214.725 209.787 C 214.912 212.743,214.750 212.800,206.124 212.800 L 198.800 212.800 198.800 204.580 L 198.800 196.360 201.100 196.480 L 203.400 196.600 203.523 198.990 M214.617 203.348 C 215.145 206.166,214.856 206.587,212.300 206.720 L 210.000 206.840 210.000 204.420 L 210.000 202.000 212.182 202.000 C 214.343 202.000,214.366 202.013,214.617 203.348 M178.497 207.263 C 178.153 207.607,178.000 209.327,178.000 212.833 C 178.000 218.546,177.904 218.390,181.400 218.388 C 184.021 218.387,184.037 218.350,183.912 212.369 L 183.800 207.000 181.397 206.883 C 179.872 206.809,178.812 206.948,178.497 207.263 M182.967 207.843 C 183.495 208.045,183.600 208.873,183.600 212.835 C 183.600 218.150,183.546 218.234,180.355 217.929 L 179.000 217.800 178.886 213.224 C 178.742 207.444,179.461 206.497,182.967 207.843 M183.875 234.659 C 183.724 234.810,183.600 235.975,183.600 237.248 L 183.600 239.563 180.900 239.682 L 178.200 239.800 178.200 242.400 L 178.200 245.000 181.000 245.000 L 183.800 245.000 183.919 242.500 L 184.038 240.000 192.200 240.000 L 200.362 240.000 200.481 242.500 L 200.600 245.000 203.400 245.000 L 206.200 245.000 206.200 242.400 L 206.200 239.800 203.519 239.682 L 200.837 239.564 200.719 237.082 L 200.600 234.600 192.375 234.492 C 187.851 234.433,184.026 234.508,183.875 234.659 M200.400 237.208 L 200.400 239.617 192.300 239.508 L 184.200 239.400 184.075 237.654 C 183.860 234.666,183.469 234.800,192.387 234.800 L 200.400 234.800 200.400 237.208 M183.520 242.300 L 183.400 244.600 181.200 244.600 L 179.000 244.600 178.880 242.300 L 178.760 240.000 181.200 240.000 L 183.640 240.000 183.520 242.300 M205.600 242.420 L 205.600 244.840 203.300 244.720 L 201.000 244.600 200.880 242.300 L 200.760 240.000 203.180 240.000 L 205.600 240.000 205.600 242.420 " stroke="none" fill="#9c9c9c" fill-rule="evenodd"></path></g></svg>